<svg id="visual" viewBox="0 0 900 600" width="900" height="600" xmlns="http://www.w3.org/2000/svg" xmlns:xlink="http://www.w3.org/1999/xlink" version="1.1"><g stroke-width="1" stroke-linejoin="bevel"><path d="M481 281L529 254L498 222Z" fill="#00534d" stroke="#FFFFFF"></path><path d="M481 281L549 286L529 254Z" fill="#032c03" stroke="#FFFFFF"></path><path d="M498 222L418 254L481 281Z" fill="#0096e6" stroke="#FFFFFF"></path><path d="M557 196L492 171L498 222Z" fill="#289dff" stroke="#FFFFFF"></path><path d="M498 222L434 162L418 254Z" fill="#00534d" stroke="#FFFFFF"></path><path d="M557 196L498 222L529 254Z" fill="#00391e" stroke="#FFFFFF"></path><path d="M587 250L557 196L529 254Z" fill="#0096e6" stroke="#FFFFFF"></path><path d="M549 286L587 250L529 254Z" fill="#00534d" stroke="#FFFFFF"></path><path d="M418 254L404 307L481 281Z" fill="#289dff" stroke="#FFFFFF"></path><path d="M481 281L521 369L549 286Z" fill="#006c7b" stroke="#FFFFFF"></path><path d="M492 171L434 162L498 222Z" fill="#00534d" stroke="#FFFFFF"></path><path d="M418 254L362 295L404 307Z" fill="#032c03" stroke="#FFFFFF"></path><path d="M493 372L521 369L481 281Z" fill="#032c03" stroke="#FFFFFF"></path><path d="M549 286L618 315L587 250Z" fill="#008dcb" stroke="#FFFFFF"></path><path d="M402 342L493 372L481 281Z" fill="#00534d" stroke="#FFFFFF"></path><path d="M587 250L598 188L557 196Z" fill="#008dcb" stroke="#FFFFFF"></path><path d="M534 117L495 127L492 171Z" fill="#004635" stroke="#FFFFFF"></path><path d="M534 117L492 171L557 196Z" fill="#289dff" stroke="#FFFFFF"></path><path d="M492 171L495 127L434 162Z" fill="#289dff" stroke="#FFFFFF"></path><path d="M404 307L402 342L481 281Z" fill="#0096e6" stroke="#FFFFFF"></path><path d="M586 365L618 315L549 286Z" fill="#006064" stroke="#FFFFFF"></path><path d="M587 250L663 249L598 188Z" fill="#289dff" stroke="#FFFFFF"></path><path d="M343 240L362 295L418 254Z" fill="#004635" stroke="#FFFFFF"></path><path d="M404 307L362 295L402 342Z" fill="#006064" stroke="#FFFFFF"></path><path d="M598 188L534 117L557 196Z" fill="#289dff" stroke="#FFFFFF"></path><path d="M521 369L586 365L549 286Z" fill="#289dff" stroke="#FFFFFF"></path><path d="M547 418L586 365L521 369Z" fill="#0083af" stroke="#FFFFFF"></path><path d="M347 193L343 240L418 254Z" fill="#032c03" stroke="#FFFFFF"></path><path d="M363 127L347 193L434 162Z" fill="#006064" stroke="#FFFFFF"></path><path d="M434 162L347 193L418 254Z" fill="#032c03" stroke="#FFFFFF"></path><path d="M498 43L426 106L495 127Z" fill="#289dff" stroke="#FFFFFF"></path><path d="M495 127L426 106L434 162Z" fill="#289dff" stroke="#FFFFFF"></path><path d="M659 302L663 249L618 315Z" fill="#008dcb" stroke="#FFFFFF"></path><path d="M618 315L663 249L587 250Z" fill="#0083af" stroke="#FFFFFF"></path><path d="M598 188L616 113L534 117Z" fill="#004635" stroke="#FFFFFF"></path><path d="M656 347L659 302L618 315Z" fill="#289dff" stroke="#FFFFFF"></path><path d="M489 426L521 369L493 372Z" fill="#006c7b" stroke="#FFFFFF"></path><path d="M489 426L547 418L521 369Z" fill="#0083af" stroke="#FFFFFF"></path><path d="M586 365L656 347L618 315Z" fill="#007894" stroke="#FFFFFF"></path><path d="M423 426L489 426L493 372Z" fill="#006c7b" stroke="#FFFFFF"></path><path d="M663 249L654 164L598 188Z" fill="#00534d" stroke="#FFFFFF"></path><path d="M612 409L656 347L586 365Z" fill="#289dff" stroke="#FFFFFF"></path><path d="M659 302L707 301L663 249Z" fill="#289dff" stroke="#FFFFFF"></path><path d="M654 164L616 113L598 188Z" fill="#006c7b" stroke="#FFFFFF"></path><path d="M534 117L546 75L495 127Z" fill="#0083af" stroke="#FFFFFF"></path><path d="M426 106L363 127L434 162Z" fill="#032c03" stroke="#FFFFFF"></path><path d="M616 113L546 75L534 117Z" fill="#289dff" stroke="#FFFFFF"></path><path d="M376 417L423 426L402 342Z" fill="#00534d" stroke="#FFFFFF"></path><path d="M402 342L423 426L493 372Z" fill="#008dcb" stroke="#FFFFFF"></path><path d="M343 240L311 294L362 295Z" fill="#006064" stroke="#FFFFFF"></path><path d="M362 295L348 374L402 342Z" fill="#007894" stroke="#FFFFFF"></path><path d="M294 228L311 294L343 240Z" fill="#004635" stroke="#FFFFFF"></path><path d="M294 228L343 240L347 193Z" fill="#004635" stroke="#FFFFFF"></path><path d="M311 294L348 374L362 295Z" fill="#0083af" stroke="#FFFFFF"></path><path d="M547 418L612 409L586 365Z" fill="#006064" stroke="#FFFFFF"></path><path d="M363 127L317 179L347 193Z" fill="#006064" stroke="#FFFFFF"></path><path d="M348 374L376 417L402 342Z" fill="#0083af" stroke="#FFFFFF"></path><path d="M317 179L294 228L347 193Z" fill="#0083af" stroke="#FFFFFF"></path><path d="M498 0L498 43L521 0Z" fill="#006c7b" stroke="#FFFFFF"></path><path d="M546 75L498 43L495 127Z" fill="#0083af" stroke="#FFFFFF"></path><path d="M426 106L372 73L363 127Z" fill="#006c7b" stroke="#FFFFFF"></path><path d="M705 345L659 302L656 347Z" fill="#006c7b" stroke="#FFFFFF"></path><path d="M705 345L707 301L659 302Z" fill="#008dcb" stroke="#FFFFFF"></path><path d="M663 249L702 167L654 164Z" fill="#008dcb" stroke="#FFFFFF"></path><path d="M498 43L424 48L426 106Z" fill="#289dff" stroke="#FFFFFF"></path><path d="M363 127L293 120L317 179Z" fill="#00534d" stroke="#FFFFFF"></path><path d="M605 468L645 415L612 409Z" fill="#0083af" stroke="#FFFFFF"></path><path d="M612 409L645 415L656 347Z" fill="#289dff" stroke="#FFFFFF"></path><path d="M605 468L612 409L547 418Z" fill="#006c7b" stroke="#FFFFFF"></path><path d="M654 164L657 103L616 113Z" fill="#00534d" stroke="#FFFFFF"></path><path d="M616 113L599 49L546 75Z" fill="#008dcb" stroke="#FFFFFF"></path><path d="M702 167L657 103L654 164Z" fill="#008dcb" stroke="#FFFFFF"></path><path d="M424 48L372 73L426 106Z" fill="#008dcb" stroke="#FFFFFF"></path><path d="M734 250L702 167L663 249Z" fill="#00391e" stroke="#FFFFFF"></path><path d="M472 482L524 475L489 426Z" fill="#008dcb" stroke="#FFFFFF"></path><path d="M489 426L524 475L547 418Z" fill="#008dcb" stroke="#FFFFFF"></path><path d="M472 482L489 426L438 478Z" fill="#00391e" stroke="#FFFFFF"></path><path d="M645 415L705 345L656 347Z" fill="#00534d" stroke="#FFFFFF"></path><path d="M657 103L599 49L616 113Z" fill="#006064" stroke="#FFFFFF"></path><path d="M438 478L489 426L423 426Z" fill="#00391e" stroke="#FFFFFF"></path><path d="M376 465L438 478L423 426Z" fill="#004635" stroke="#FFFFFF"></path><path d="M284 368L312 401L348 374Z" fill="#0096e6" stroke="#FFFFFF"></path><path d="M348 374L312 401L376 417Z" fill="#006c7b" stroke="#FFFFFF"></path><path d="M376 417L376 465L423 426Z" fill="#004635" stroke="#FFFFFF"></path><path d="M284 368L348 374L311 294Z" fill="#032c03" stroke="#FFFFFF"></path><path d="M769 225L734 250L775 316Z" fill="#007894" stroke="#FFFFFF"></path><path d="M707 301L734 250L663 249Z" fill="#004635" stroke="#FFFFFF"></path><path d="M594 532L605 468L524 475Z" fill="#004635" stroke="#FFFFFF"></path><path d="M524 475L605 468L547 418Z" fill="#0083af" stroke="#FFFFFF"></path><path d="M645 415L724 420L705 345Z" fill="#008dcb" stroke="#FFFFFF"></path><path d="M249 342L284 368L311 294Z" fill="#008dcb" stroke="#FFFFFF"></path><path d="M232 224L256 281L294 228Z" fill="#006c7b" stroke="#FFFFFF"></path><path d="M294 228L256 281L311 294Z" fill="#032c03" stroke="#FFFFFF"></path><path d="M232 224L294 228L242 171Z" fill="#0083af" stroke="#FFFFFF"></path><path d="M310 466L376 465L376 417Z" fill="#008dcb" stroke="#FFFFFF"></path><path d="M372 73L293 120L363 127Z" fill="#0096e6" stroke="#FFFFFF"></path><path d="M521 0L498 43L546 75Z" fill="#007894" stroke="#FFFFFF"></path><path d="M498 43L430 0L424 48Z" fill="#00534d" stroke="#FFFFFF"></path><path d="M424 48L348 0L372 73Z" fill="#289dff" stroke="#FFFFFF"></path><path d="M591 0L521 0L546 75Z" fill="#00391e" stroke="#FFFFFF"></path><path d="M736 107L675 69L657 103Z" fill="#006c7b" stroke="#FFFFFF"></path><path d="M657 103L675 69L599 49Z" fill="#008dcb" stroke="#FFFFFF"></path><path d="M599 49L591 0L546 75Z" fill="#006c7b" stroke="#FFFFFF"></path><path d="M736 107L657 103L702 167Z" fill="#00534d" stroke="#FFFFFF"></path><path d="M498 0L430 0L498 43Z" fill="#007894" stroke="#FFFFFF"></path><path d="M372 73L314 46L293 120Z" fill="#006064" stroke="#FFFFFF"></path><path d="M256 281L249 342L311 294Z" fill="#0096e6" stroke="#FFFFFF"></path><path d="M233 408L310 466L312 401Z" fill="#006c7b" stroke="#FFFFFF"></path><path d="M312 401L310 466L376 417Z" fill="#006064" stroke="#FFFFFF"></path><path d="M242 171L294 228L317 179Z" fill="#008dcb" stroke="#FFFFFF"></path><path d="M256 281L190 281L249 342Z" fill="#0083af" stroke="#FFFFFF"></path><path d="M293 120L242 171L317 179Z" fill="#006064" stroke="#FFFFFF"></path><path d="M661 0L591 0L599 49Z" fill="#00534d" stroke="#FFFFFF"></path><path d="M775 316L734 250L707 301Z" fill="#008dcb" stroke="#FFFFFF"></path><path d="M734 250L769 225L702 167Z" fill="#008dcb" stroke="#FFFFFF"></path><path d="M498 545L528 526L472 482Z" fill="#289dff" stroke="#FFFFFF"></path><path d="M472 482L528 526L524 475Z" fill="#00534d" stroke="#FFFFFF"></path><path d="M498 545L472 482L419 555Z" fill="#007894" stroke="#FFFFFF"></path><path d="M348 0L314 46L372 73Z" fill="#008dcb" stroke="#FFFFFF"></path><path d="M293 120L237 130L242 171Z" fill="#007894" stroke="#FFFFFF"></path><path d="M782 136L736 107L702 167Z" fill="#289dff" stroke="#FFFFFF"></path><path d="M675 69L661 0L599 49Z" fill="#007894" stroke="#FFFFFF"></path><path d="M660 486L724 420L645 415Z" fill="#0096e6" stroke="#FFFFFF"></path><path d="M705 345L775 316L707 301Z" fill="#007894" stroke="#FFFFFF"></path><path d="M660 486L645 415L605 468Z" fill="#289dff" stroke="#FFFFFF"></path><path d="M233 408L312 401L284 368Z" fill="#032c03" stroke="#FFFFFF"></path><path d="M419 555L472 482L438 478Z" fill="#0096e6" stroke="#FFFFFF"></path><path d="M594 532L660 486L605 468Z" fill="#0083af" stroke="#FFFFFF"></path><path d="M796 361L775 316L705 345Z" fill="#004635" stroke="#FFFFFF"></path><path d="M227 68L237 130L293 120Z" fill="#0096e6" stroke="#FFFFFF"></path><path d="M167 250L190 281L232 224Z" fill="#289dff" stroke="#FFFFFF"></path><path d="M419 555L438 478L370 544Z" fill="#006064" stroke="#FFFFFF"></path><path d="M528 526L594 532L524 475Z" fill="#00391e" stroke="#FFFFFF"></path><path d="M430 0L348 0L424 48Z" fill="#006c7b" stroke="#FFFFFF"></path><path d="M314 46L227 68L293 120Z" fill="#0083af" stroke="#FFFFFF"></path><path d="M554 600L594 532L528 526Z" fill="#032c03" stroke="#FFFFFF"></path><path d="M715 0L661 0L675 69Z" fill="#00534d" stroke="#FFFFFF"></path><path d="M792 73L724 51L736 107Z" fill="#008dcb" stroke="#FFFFFF"></path><path d="M736 107L724 51L675 69Z" fill="#006064" stroke="#FFFFFF"></path><path d="M830 224L797 196L769 225Z" fill="#00391e" stroke="#FFFFFF"></path><path d="M769 225L797 196L702 167Z" fill="#0083af" stroke="#FFFFFF"></path><path d="M249 342L233 408L284 368Z" fill="#0096e6" stroke="#FFFFFF"></path><path d="M161 344L233 408L249 342Z" fill="#00391e" stroke="#FFFFFF"></path><path d="M797 196L782 136L702 167Z" fill="#008dcb" stroke="#FFFFFF"></path><path d="M182 179L232 224L242 171Z" fill="#00391e" stroke="#FFFFFF"></path><path d="M232 224L190 281L256 281Z" fill="#007894" stroke="#FFFFFF"></path><path d="M370 544L376 465L310 466Z" fill="#032c03" stroke="#FFFFFF"></path><path d="M370 544L438 478L376 465Z" fill="#007894" stroke="#FFFFFF"></path><path d="M284 527L370 544L310 466Z" fill="#007894" stroke="#FFFFFF"></path><path d="M724 420L796 361L705 345Z" fill="#007894" stroke="#FFFFFF"></path><path d="M775 316L821 314L769 225Z" fill="#032c03" stroke="#FFFFFF"></path><path d="M769 423L796 361L724 420Z" fill="#006c7b" stroke="#FFFFFF"></path><path d="M719 498L724 420L660 486Z" fill="#006c7b" stroke="#FFFFFF"></path><path d="M719 498L769 423L724 420Z" fill="#008dcb" stroke="#FFFFFF"></path><path d="M185 121L182 179L237 130Z" fill="#006c7b" stroke="#FFFFFF"></path><path d="M237 130L182 179L242 171Z" fill="#006064" stroke="#FFFFFF"></path><path d="M595 600L645 543L594 532Z" fill="#007894" stroke="#FFFFFF"></path><path d="M594 532L645 543L660 486Z" fill="#00391e" stroke="#FFFFFF"></path><path d="M554 600L528 526L498 545Z" fill="#0096e6" stroke="#FFFFFF"></path><path d="M283 0L227 68L314 46Z" fill="#006064" stroke="#FFFFFF"></path><path d="M842 358L821 314L796 361Z" fill="#007894" stroke="#FFFFFF"></path><path d="M796 361L821 314L775 316Z" fill="#0096e6" stroke="#FFFFFF"></path><path d="M645 543L719 498L660 486Z" fill="#0096e6" stroke="#FFFFFF"></path><path d="M182 179L167 250L232 224Z" fill="#00391e" stroke="#FFFFFF"></path><path d="M175 427L231 465L233 408Z" fill="#006c7b" stroke="#FFFFFF"></path><path d="M348 0L283 0L314 46Z" fill="#008dcb" stroke="#FFFFFF"></path><path d="M821 314L830 224L769 225Z" fill="#004635" stroke="#FFFFFF"></path><path d="M797 196L840 124L782 136Z" fill="#289dff" stroke="#FFFFFF"></path><path d="M792 73L736 107L782 136Z" fill="#0096e6" stroke="#FFFFFF"></path><path d="M768 0L715 0L724 51Z" fill="#008dcb" stroke="#FFFFFF"></path><path d="M724 51L715 0L675 69Z" fill="#032c03" stroke="#FFFFFF"></path><path d="M227 68L185 121L237 130Z" fill="#006064" stroke="#FFFFFF"></path><path d="M118 242L125 285L167 250Z" fill="#007894" stroke="#FFFFFF"></path><path d="M161 344L249 342L190 281Z" fill="#008dcb" stroke="#FFFFFF"></path><path d="M233 408L231 465L310 466Z" fill="#289dff" stroke="#FFFFFF"></path><path d="M840 124L792 73L782 136Z" fill="#032c03" stroke="#FFFFFF"></path><path d="M414 600L496 600L419 555Z" fill="#0096e6" stroke="#FFFFFF"></path><path d="M419 555L496 600L498 545Z" fill="#006c7b" stroke="#FFFFFF"></path><path d="M231 465L284 527L310 466Z" fill="#0096e6" stroke="#FFFFFF"></path><path d="M370 544L414 600L419 555Z" fill="#0096e6" stroke="#FFFFFF"></path><path d="M125 285L161 344L190 281Z" fill="#00534d" stroke="#FFFFFF"></path><path d="M496 600L554 600L498 545Z" fill="#006064" stroke="#FFFFFF"></path><path d="M645 543L726 533L719 498Z" fill="#00391e" stroke="#FFFFFF"></path><path d="M900 228L845 198L830 224Z" fill="#006064" stroke="#FFFFFF"></path><path d="M830 224L845 198L797 196Z" fill="#006064" stroke="#FFFFFF"></path><path d="M347 600L414 600L370 544Z" fill="#007894" stroke="#FFFFFF"></path><path d="M554 600L595 600L594 532Z" fill="#006064" stroke="#FFFFFF"></path><path d="M848 438L842 358L796 361Z" fill="#0096e6" stroke="#FFFFFF"></path><path d="M900 302L900 228L830 224Z" fill="#008dcb" stroke="#FFFFFF"></path><path d="M848 438L796 361L769 423Z" fill="#006064" stroke="#FFFFFF"></path><path d="M667 600L726 533L645 543Z" fill="#008dcb" stroke="#FFFFFF"></path><path d="M719 498L798 496L769 423Z" fill="#289dff" stroke="#FFFFFF"></path><path d="M283 0L240 0L227 68Z" fill="#006c7b" stroke="#FFFFFF"></path><path d="M227 68L171 52L185 121Z" fill="#006c7b" stroke="#FFFFFF"></path><path d="M231 465L234 547L284 527Z" fill="#006c7b" stroke="#FFFFFF"></path><path d="M161 344L175 427L233 408Z" fill="#00534d" stroke="#FFFFFF"></path><path d="M845 198L840 124L797 196Z" fill="#006c7b" stroke="#FFFFFF"></path><path d="M825 58L768 0L792 73Z" fill="#289dff" stroke="#FFFFFF"></path><path d="M792 73L768 0L724 51Z" fill="#289dff" stroke="#FFFFFF"></path><path d="M167 250L125 285L190 281Z" fill="#0083af" stroke="#FFFFFF"></path><path d="M161 344L121 412L175 427Z" fill="#00534d" stroke="#FFFFFF"></path><path d="M118 242L167 250L111 185Z" fill="#004635" stroke="#FFFFFF"></path><path d="M313 600L347 600L370 544Z" fill="#00391e" stroke="#FFFFFF"></path><path d="M313 600L370 544L284 527Z" fill="#0083af" stroke="#FFFFFF"></path><path d="M111 185L182 179L185 121Z" fill="#0096e6" stroke="#FFFFFF"></path><path d="M111 185L167 250L182 179Z" fill="#0096e6" stroke="#FFFFFF"></path><path d="M840 124L825 58L792 73Z" fill="#007894" stroke="#FFFFFF"></path><path d="M177 0L171 52L227 68Z" fill="#006064" stroke="#FFFFFF"></path><path d="M595 600L667 600L645 543Z" fill="#00534d" stroke="#FFFFFF"></path><path d="M784 524L719 498L726 533Z" fill="#289dff" stroke="#FFFFFF"></path><path d="M784 524L798 496L719 498Z" fill="#006c7b" stroke="#FFFFFF"></path><path d="M107 489L189 496L175 427Z" fill="#0083af" stroke="#FFFFFF"></path><path d="M175 427L189 496L231 465Z" fill="#289dff" stroke="#FFFFFF"></path><path d="M243 600L313 600L284 527Z" fill="#00534d" stroke="#FFFFFF"></path><path d="M116 102L111 185L185 121Z" fill="#0096e6" stroke="#FFFFFF"></path><path d="M780 600L784 524L726 533Z" fill="#00391e" stroke="#FFFFFF"></path><path d="M189 496L234 547L231 465Z" fill="#008dcb" stroke="#FFFFFF"></path><path d="M857 486L848 438L798 496Z" fill="#006064" stroke="#FFFFFF"></path><path d="M798 496L848 438L769 423Z" fill="#004635" stroke="#FFFFFF"></path><path d="M900 302L830 224L821 314Z" fill="#006064" stroke="#FFFFFF"></path><path d="M845 198L900 130L840 124Z" fill="#006064" stroke="#FFFFFF"></path><path d="M840 124L900 59L825 58Z" fill="#004635" stroke="#FFFFFF"></path><path d="M900 302L821 314L842 358Z" fill="#00391e" stroke="#FFFFFF"></path><path d="M900 357L900 302L842 358Z" fill="#006c7b" stroke="#FFFFFF"></path><path d="M900 228L900 192L845 198Z" fill="#032c03" stroke="#FFFFFF"></path><path d="M101 377L121 412L161 344Z" fill="#007894" stroke="#FFFFFF"></path><path d="M101 377L161 344L125 285Z" fill="#00534d" stroke="#FFFFFF"></path><path d="M101 377L125 285L63 312Z" fill="#004635" stroke="#FFFFFF"></path><path d="M240 0L177 0L227 68Z" fill="#00534d" stroke="#FFFFFF"></path><path d="M171 52L116 102L185 121Z" fill="#289dff" stroke="#FFFFFF"></path><path d="M138 44L116 102L171 52Z" fill="#004635" stroke="#FFFFFF"></path><path d="M63 312L125 285L118 242Z" fill="#008dcb" stroke="#FFFFFF"></path><path d="M900 424L900 357L842 358Z" fill="#006064" stroke="#FFFFFF"></path><path d="M177 0L138 44L171 52Z" fill="#032c03" stroke="#FFFFFF"></path><path d="M667 600L734 600L726 533Z" fill="#004635" stroke="#FFFFFF"></path><path d="M853 526L857 486L798 496Z" fill="#004635" stroke="#FFFFFF"></path><path d="M900 192L900 130L845 198Z" fill="#006c7b" stroke="#FFFFFF"></path><path d="M825 58L836 0L768 0Z" fill="#004635" stroke="#FFFFFF"></path><path d="M900 59L836 0L825 58Z" fill="#0096e6" stroke="#FFFFFF"></path><path d="M853 526L798 496L784 524Z" fill="#0096e6" stroke="#FFFFFF"></path><path d="M848 438L900 424L842 358Z" fill="#0083af" stroke="#FFFFFF"></path><path d="M234 547L243 600L284 527Z" fill="#006064" stroke="#FFFFFF"></path><path d="M179 557L243 600L234 547Z" fill="#0096e6" stroke="#FFFFFF"></path><path d="M179 557L234 547L189 496Z" fill="#032c03" stroke="#FFFFFF"></path><path d="M116 102L70 167L111 185Z" fill="#006c7b" stroke="#FFFFFF"></path><path d="M111 185L61 228L118 242Z" fill="#00391e" stroke="#FFFFFF"></path><path d="M46 114L70 167L116 102Z" fill="#006064" stroke="#FFFFFF"></path><path d="M70 167L61 228L111 185Z" fill="#289dff" stroke="#FFFFFF"></path><path d="M857 486L900 424L848 438Z" fill="#0096e6" stroke="#FFFFFF"></path><path d="M61 228L63 312L118 242Z" fill="#289dff" stroke="#FFFFFF"></path><path d="M107 489L175 427L121 412Z" fill="#289dff" stroke="#FFFFFF"></path><path d="M63 419L121 412L101 377Z" fill="#0096e6" stroke="#FFFFFF"></path><path d="M137 537L179 557L189 496Z" fill="#289dff" stroke="#FFFFFF"></path><path d="M734 600L780 600L726 533Z" fill="#0096e6" stroke="#FFFFFF"></path><path d="M857 486L900 490L900 424Z" fill="#00534d" stroke="#FFFFFF"></path><path d="M900 130L900 59L840 124Z" fill="#008dcb" stroke="#FFFFFF"></path><path d="M844 600L853 526L784 524Z" fill="#006064" stroke="#FFFFFF"></path><path d="M177 0L127 0L138 44Z" fill="#0083af" stroke="#FFFFFF"></path><path d="M46 75L46 114L116 102Z" fill="#004635" stroke="#FFFFFF"></path><path d="M0 377L62 378L63 312Z" fill="#0083af" stroke="#FFFFFF"></path><path d="M63 312L62 378L101 377Z" fill="#008dcb" stroke="#FFFFFF"></path><path d="M63 419L107 489L121 412Z" fill="#00534d" stroke="#FFFFFF"></path><path d="M107 489L137 537L189 496Z" fill="#289dff" stroke="#FFFFFF"></path><path d="M179 557L167 600L243 600Z" fill="#032c03" stroke="#FFFFFF"></path><path d="M62 378L63 419L101 377Z" fill="#004635" stroke="#FFFFFF"></path><path d="M121 600L167 600L137 537Z" fill="#00534d" stroke="#FFFFFF"></path><path d="M900 546L900 490L853 526Z" fill="#0096e6" stroke="#FFFFFF"></path><path d="M853 526L900 490L857 486Z" fill="#032c03" stroke="#FFFFFF"></path><path d="M0 184L0 233L61 228Z" fill="#004635" stroke="#FFFFFF"></path><path d="M61 228L0 298L63 312Z" fill="#00391e" stroke="#FFFFFF"></path><path d="M0 431L52 479L63 419Z" fill="#006064" stroke="#FFFFFF"></path><path d="M46 75L116 102L138 44Z" fill="#006c7b" stroke="#FFFFFF"></path><path d="M900 59L900 0L836 0Z" fill="#008dcb" stroke="#FFFFFF"></path><path d="M74 549L137 537L107 489Z" fill="#0083af" stroke="#FFFFFF"></path><path d="M137 537L167 600L179 557Z" fill="#0083af" stroke="#FFFFFF"></path><path d="M73 0L46 75L138 44Z" fill="#00534d" stroke="#FFFFFF"></path><path d="M780 600L844 600L784 524Z" fill="#008dcb" stroke="#FFFFFF"></path><path d="M127 0L73 0L138 44Z" fill="#00391e" stroke="#FFFFFF"></path><path d="M844 600L900 546L853 526Z" fill="#0083af" stroke="#FFFFFF"></path><path d="M0 184L70 167L0 129Z" fill="#004635" stroke="#FFFFFF"></path><path d="M0 184L61 228L70 167Z" fill="#00534d" stroke="#FFFFFF"></path><path d="M63 419L52 479L107 489Z" fill="#0096e6" stroke="#FFFFFF"></path><path d="M0 377L63 419L62 378Z" fill="#004635" stroke="#FFFFFF"></path><path d="M0 233L0 298L61 228Z" fill="#008dcb" stroke="#FFFFFF"></path><path d="M0 129L70 167L46 114Z" fill="#0083af" stroke="#FFFFFF"></path><path d="M0 129L46 114L0 73Z" fill="#007894" stroke="#FFFFFF"></path><path d="M74 549L121 600L137 537Z" fill="#00391e" stroke="#FFFFFF"></path><path d="M0 298L0 377L63 312Z" fill="#006c7b" stroke="#FFFFFF"></path><path d="M0 73L46 114L46 75Z" fill="#289dff" stroke="#FFFFFF"></path><path d="M0 526L74 549L52 479Z" fill="#0083af" stroke="#FFFFFF"></path><path d="M52 479L74 549L107 489Z" fill="#00391e" stroke="#FFFFFF"></path><path d="M0 377L0 431L63 419Z" fill="#00391e" stroke="#FFFFFF"></path><path d="M0 0L0 73L46 75Z" fill="#007894" stroke="#FFFFFF"></path><path d="M844 600L900 600L900 546Z" fill="#00534d" stroke="#FFFFFF"></path><path d="M0 600L75 600L74 549Z" fill="#006064" stroke="#FFFFFF"></path><path d="M74 549L75 600L121 600Z" fill="#006c7b" stroke="#FFFFFF"></path><path d="M0 431L0 491L52 479Z" fill="#0083af" stroke="#FFFFFF"></path><path d="M73 0L0 0L46 75Z" fill="#0083af" stroke="#FFFFFF"></path><path d="M0 491L0 526L52 479Z" fill="#004635" stroke="#FFFFFF"></path><path d="M0 526L0 600L74 549Z" fill="#0096e6" stroke="#FFFFFF"></path></g></svg>